<svg id="Layer_1" data-name="Layer 1" xmlns="http://www.w3.org/2000/svg" viewBox="0 0 1000 233.9"><title>white-insightlogo</title><rect x="11" y="101.6" width="12.9" height="71.82" style="fill:#fff"/><path d="M73.3,100.7a31,31,0,0,0-19.9,7v-5.8H40.6v71.6H53.5V134c0-12,8.1-20.4,19.6-20.5,6.4-.1,11.5,1.7,14.9,5.1s5,8.1,5,14.2v40.7h12.9V132.7C105.9,113.3,93.1,100.7,73.3,100.7Z" style="fill:#fff"/><path d="M150.7,131l-2.3-.4c-8.8-1.5-16.1-3.2-16.2-8.6a5.7,5.7,0,0,1,1.7-4.4c2.6-2.7,8.2-4.3,14.6-4.2s12.5,1,18.2,6l2.3,2.1,8.4-8.9-2.4-2.2c-6.8-6.3-15.7-9.6-26.4-9.6s-18.6,2.8-23.7,7.9a18.3,18.3,0,0,0-5.4,13.6c.1,16,16.2,18.7,28,20.7s18.6,3.4,18.5,9.6c-.3,8.3-12,9.2-17.1,9.2-9,0-16.9-3.6-21.1-9.6l-2.1-3-9.6,8.4,1.5,2.4c6,9.1,17.6,14.5,31.2,14.5s29.6-5.6,30-21.3C179.5,135.9,162.2,133,150.7,131Z" style="fill:#fff"/><rect x="191.3" y="101.6" width="12.9" height="71.82" style="fill:#fff"/><path d="M271.7,163a34.4,34.4,0,0,0,13.8-27.3c0-8.9-2.3-16-7.1-22.1l6.7-7.7-9.1-8-6.7,7.7a36.4,36.4,0,0,0-17.8-4.9c-19.9,0-33.8,14.4-33.8,35s14.2,34.7,33.8,34.7c3.6,0,21.4.8,21.4,16.3s-16.4,16.4-21.4,16.4c-10.2,0-21.1-4.4-21.1-16.4v-3.3H217.5v3.3c0,17.4,13.7,29.2,34,29.2s34.2-11.5,34.2-29.2C285.7,176.3,280.8,168.1,271.7,163Zm-20.2-5.5c-13.7,0-20.8-11-20.8-21.8,0-13.8,7.8-22,20.8-22s21.2,8.6,21.2,22C272.7,147.5,263,157.5,251.5,157.5Z" style="fill:#fff"/><path d="M331,101c-8,.1-14.9,2.6-20.1,7.2V74.8H298.2v98.7h12.9v-39c0-12.1,8.4-20.8,20-20.8s17.7,6.4,17.7,19.2v40.6h12.8V132.9C361.6,112.9,350.2,101,331,101Z" style="fill:#fff"/><path d="M418.4,158.2l-3.1,1.4a21.2,21.2,0,0,1-8.6,2.4c-6.8,0-8.8-2.7-8.8-11.8V113.8h22.2V101.9H397.9v-20l-12.8,1.3v18.7H371.3v11.9h13.8v36.4c0,16,7.3,24.2,21.6,24.2,4.1,0,8.6-1.2,13.6-3.6l2.8-1.4Z" style="fill:#fff"/><path d="M482.7,115.4c-7.1-6.2-14.1-7.3-21.9-7.3-10.9-.2-21.3,3.9-21.1,12.8s12.5,11.2,21.3,12.8c12.4,2.1,29.6,4.2,28.9,20.5s-16.5,19.6-28.8,19.6-24.5-4.7-30.6-14l5.1-4.6c5.8,8.4,16.3,11.9,25.7,11.9s21.4-2.2,21.8-13.3-11.3-12-22.8-13.9c-13.6-2.2-27.1-4.8-27.2-18.8s13.6-19.7,27.7-19.6c10.2,0,19.2,2.9,26.1,9.4Z" style="fill:#fff"/><path d="M497.5,137.8c0-22.2,15.8-36.4,35.5-36.4s35.6,14.2,35.6,36.4-15.9,35.8-35.6,35.8S497.5,160,497.5,137.8Zm64.3,0c0-18.1-12.9-29.9-28.8-29.9s-28.7,11.8-28.7,29.9,12.9,29,28.7,29S561.8,155.9,561.8,137.8Z" style="fill:#fff"/><path d="M587.2,172.6V109.3H572.9v-6.1h14.3V97c0-13.9,5.5-23.9,21-23.9a22.9,22.9,0,0,1,13.9,4.8L618.7,83c-3.9-2.3-6.6-3.6-10.8-3.6-8.8,0-13.9,5.4-13.9,17.6v6.2h23.1v6.1H594v63.3Z" style="fill:#fff"/><path d="M647.1,81.6v21.1h23.8v5.8H647.1v42.6c0,9.5,2,16.2,12.9,16.2a26.5,26.5,0,0,0,10.8-2.9l2.4,5.7c-4.4,2.1-8.8,3.5-13.2,3.5-14.9,0-19.7-8.7-19.7-22.5V108.5H625.4v-5.8h14.9V82.3Z" style="fill:#fff"/><path d="M759.1,172.6h-7.6l-11.3-30.5-8.5-27.2-8.8,27.3-11.3,30.4h-7.7L679,102.7h7.6l21.1,61.9,21.4-61.9h5l21.2,61.9,21-61.9h7.6Z" style="fill:#fff"/><path d="M858,102.7v69.9h-7V157.8a32.7,32.7,0,0,1-28.6,16c-19.5,0-35.5-14.7-35.5-36.1s16-35.9,35.5-35.9c11.3,0,22.8,5.3,28.6,16.2V102.7Zm-64.2,35c0,17.5,12.7,29.3,28.6,29.3,39,0,39-58.5,0-58.5C806.5,108.5,793.8,120.1,793.8,137.7Z" style="fill:#fff"/><path d="M878.7,102.7l.3,12.4c4.4-9.5,14.3-13.1,23.2-13.1a26.5,26.5,0,0,1,15.1,4.1l-3.2,5.6a22.9,22.9,0,0,0-11.9-3.2,23.2,23.2,0,0,0-23.1,23.4v40.7h-6.9V102.7Z" style="fill:#fff"/><path d="M919.2,137.7c0-21,15.8-36.2,35.5-36.2s37.3,12.1,34.6,39.4h-63c1.4,16.5,14,25.9,28.4,25.9,9.2,0,20-3.6,25.2-10.6l5,4c-6.8,8.9-19,13.4-30.2,13.4C935,173.6,919.2,159.9,919.2,137.7Zm63.9-2.9c-.2-17.3-11.5-26.9-28.4-26.9-14.4,0-26.9,9.8-28.4,26.9Z" style="fill:#fff"/><circle cx="107.6" cy="56.8" r="8.8" style="fill:#fff"/><path d="M186,71.1a11.9,11.9,0,0,1,1-4.6L107.5,53.8l-90.8,27,1.7,5.6,89.4-26.7,78.3,12.5C186.1,71.8,186,71.5,186,71.1Z" style="fill:#fff"/><rect x="189.4" y="40" width="104.5" height="5.75" transform="translate(15.3 137.7) rotate(-32.8)" style="fill:#fff"/><circle cx="282.6" cy="16.5" r="8.8" style="fill:#fff"/><circle cx="197.7" cy="71.1" r="8.8" style="fill:#fff"/><circle cx="17.4" cy="85.4" r="8.8" style="fill:#fff"/></svg>